<mxfile host="app.diagrams.net" modified="2023-10-26T01:42:31.469Z" agent="Mozilla/5.0 (Windows NT 10.0; Win64; x64) AppleWebKit/537.36 (KHTML, like Gecko) Chrome/118.0.0.0 Safari/537.36 Edg/118.0.2088.46" etag="3_YBuO_vUrXBrUbbT55Z" version="22.0.8" type="github">
  <diagram name="HIGH LEVEL" id="KZkxDnQAQwQt_1cJzQqM">
    <mxGraphModel dx="1961" dy="1136" grid="1" gridSize="10" guides="1" tooltips="1" connect="1" arrows="1" fold="1" page="1" pageScale="1" pageWidth="1600" pageHeight="900" math="0" shadow="0">
      <root>
        <mxCell id="0" />
        <mxCell id="1" parent="0" />
        <mxCell id="ACvKjDb-c_gntps21gae-31" value="HASH RING" style="ellipse;whiteSpace=wrap;html=1;aspect=fixed;" vertex="1" parent="1">
          <mxGeometry x="765" y="330" width="410" height="410" as="geometry" />
        </mxCell>
        <mxCell id="ACvKjDb-c_gntps21gae-32" style="edgeStyle=orthogonalEdgeStyle;rounded=0;orthogonalLoop=1;jettySize=auto;html=1;exitX=0;exitY=1;exitDx=0;exitDy=0;entryX=0.25;entryY=0;entryDx=0;entryDy=0;" edge="1" parent="1" source="ACvKjDb-c_gntps21gae-1" target="ACvKjDb-c_gntps21gae-26">
          <mxGeometry relative="1" as="geometry" />
        </mxCell>
        <mxCell id="ACvKjDb-c_gntps21gae-1" value="CLIENT" style="ellipse;whiteSpace=wrap;html=1;aspect=fixed;fillColor=#e51400;strokeColor=#B20000;fontColor=#ffffff;" vertex="1" parent="1">
          <mxGeometry x="930" y="10" width="80" height="80" as="geometry" />
        </mxCell>
        <mxCell id="ACvKjDb-c_gntps21gae-12" value="" style="rounded=1;whiteSpace=wrap;html=1;fillColor=#e3c800;fontColor=#000000;strokeColor=#B09500;" vertex="1" parent="1">
          <mxGeometry x="20" y="50" width="300" height="310" as="geometry" />
        </mxCell>
        <mxCell id="ACvKjDb-c_gntps21gae-13" value="NODE" style="text;html=1;align=center;verticalAlign=middle;resizable=0;points=[];autosize=1;strokeColor=none;fillColor=none;" vertex="1" parent="1">
          <mxGeometry x="140" y="20" width="60" height="30" as="geometry" />
        </mxCell>
        <mxCell id="ACvKjDb-c_gntps21gae-21" style="edgeStyle=orthogonalEdgeStyle;rounded=0;orthogonalLoop=1;jettySize=auto;html=1;" edge="1" parent="1" source="ACvKjDb-c_gntps21gae-14" target="ACvKjDb-c_gntps21gae-15">
          <mxGeometry relative="1" as="geometry" />
        </mxCell>
        <mxCell id="ACvKjDb-c_gntps21gae-14" value="WEB SERVER" style="whiteSpace=wrap;html=1;aspect=fixed;fillColor=#008a00;fontColor=#ffffff;strokeColor=#005700;" vertex="1" parent="1">
          <mxGeometry x="40" y="70" width="80" height="80" as="geometry" />
        </mxCell>
        <mxCell id="ACvKjDb-c_gntps21gae-22" style="edgeStyle=orthogonalEdgeStyle;rounded=0;orthogonalLoop=1;jettySize=auto;html=1;" edge="1" parent="1" source="ACvKjDb-c_gntps21gae-15" target="ACvKjDb-c_gntps21gae-16">
          <mxGeometry relative="1" as="geometry" />
        </mxCell>
        <mxCell id="ACvKjDb-c_gntps21gae-15" value="IN-MEMORY&lt;br&gt;CACHE" style="shape=hexagon;perimeter=hexagonPerimeter2;whiteSpace=wrap;html=1;fixedSize=1;fillColor=#fa6800;fontColor=#000000;strokeColor=#C73500;" vertex="1" parent="1">
          <mxGeometry x="190" y="70" width="100" height="80" as="geometry" />
        </mxCell>
        <mxCell id="ACvKjDb-c_gntps21gae-16" value="SS TABLES" style="shape=cylinder3;whiteSpace=wrap;html=1;boundedLbl=1;backgroundOutline=1;size=15;fillColor=#1ba1e2;fontColor=#ffffff;strokeColor=#006EAF;" vertex="1" parent="1">
          <mxGeometry x="210" y="230" width="60" height="80" as="geometry" />
        </mxCell>
        <mxCell id="ACvKjDb-c_gntps21gae-17" value="COMMIT LOG" style="shape=cylinder3;whiteSpace=wrap;html=1;boundedLbl=1;backgroundOutline=1;size=15;fillColor=#1ba1e2;fontColor=#ffffff;strokeColor=#006EAF;" vertex="1" parent="1">
          <mxGeometry x="50" y="230" width="60" height="80" as="geometry" />
        </mxCell>
        <mxCell id="ACvKjDb-c_gntps21gae-20" style="edgeStyle=orthogonalEdgeStyle;rounded=0;orthogonalLoop=1;jettySize=auto;html=1;entryX=0.5;entryY=0;entryDx=0;entryDy=0;entryPerimeter=0;" edge="1" parent="1" source="ACvKjDb-c_gntps21gae-14" target="ACvKjDb-c_gntps21gae-17">
          <mxGeometry relative="1" as="geometry" />
        </mxCell>
        <mxCell id="ACvKjDb-c_gntps21gae-24" value="NODE 5" style="rounded=1;whiteSpace=wrap;html=1;fillColor=#e3c800;fontColor=#000000;strokeColor=#B09500;" vertex="1" parent="1">
          <mxGeometry x="755" y="370" width="90" height="90" as="geometry" />
        </mxCell>
        <mxCell id="ACvKjDb-c_gntps21gae-33" style="edgeStyle=orthogonalEdgeStyle;rounded=0;orthogonalLoop=1;jettySize=auto;html=1;exitX=0.75;exitY=0;exitDx=0;exitDy=0;entryX=1;entryY=1;entryDx=0;entryDy=0;" edge="1" parent="1" source="ACvKjDb-c_gntps21gae-26" target="ACvKjDb-c_gntps21gae-1">
          <mxGeometry relative="1" as="geometry" />
        </mxCell>
        <mxCell id="ACvKjDb-c_gntps21gae-34" style="edgeStyle=orthogonalEdgeStyle;rounded=0;orthogonalLoop=1;jettySize=auto;html=1;exitX=0.75;exitY=1;exitDx=0;exitDy=0;entryX=0;entryY=0.5;entryDx=0;entryDy=0;" edge="1" parent="1" source="ACvKjDb-c_gntps21gae-26" target="ACvKjDb-c_gntps21gae-29">
          <mxGeometry relative="1" as="geometry" />
        </mxCell>
        <mxCell id="ACvKjDb-c_gntps21gae-35" style="edgeStyle=orthogonalEdgeStyle;rounded=0;orthogonalLoop=1;jettySize=auto;html=1;exitX=0.5;exitY=1;exitDx=0;exitDy=0;entryX=0;entryY=0.5;entryDx=0;entryDy=0;" edge="1" parent="1" source="ACvKjDb-c_gntps21gae-26" target="ACvKjDb-c_gntps21gae-28">
          <mxGeometry relative="1" as="geometry" />
        </mxCell>
        <mxCell id="ACvKjDb-c_gntps21gae-36" style="edgeStyle=orthogonalEdgeStyle;rounded=0;orthogonalLoop=1;jettySize=auto;html=1;exitX=0.25;exitY=1;exitDx=0;exitDy=0;entryX=0.25;entryY=0;entryDx=0;entryDy=0;" edge="1" parent="1" source="ACvKjDb-c_gntps21gae-26" target="ACvKjDb-c_gntps21gae-27">
          <mxGeometry relative="1" as="geometry" />
        </mxCell>
        <mxCell id="ACvKjDb-c_gntps21gae-26" value="COORDINATOR&lt;br&gt;NODE" style="rounded=1;whiteSpace=wrap;html=1;fillColor=#fa6800;fontColor=#000000;strokeColor=#C73500;" vertex="1" parent="1">
          <mxGeometry x="925" y="310" width="90" height="90" as="geometry" />
        </mxCell>
        <mxCell id="ACvKjDb-c_gntps21gae-37" style="edgeStyle=orthogonalEdgeStyle;rounded=0;orthogonalLoop=1;jettySize=auto;html=1;exitX=0.5;exitY=0;exitDx=0;exitDy=0;" edge="1" parent="1" source="ACvKjDb-c_gntps21gae-27">
          <mxGeometry relative="1" as="geometry">
            <mxPoint x="960" y="400" as="targetPoint" />
          </mxGeometry>
        </mxCell>
        <mxCell id="ACvKjDb-c_gntps21gae-27" value="NODE 3" style="rounded=1;whiteSpace=wrap;html=1;fillColor=#e3c800;fontColor=#000000;strokeColor=#B09500;" vertex="1" parent="1">
          <mxGeometry x="925" y="670" width="90" height="90" as="geometry" />
        </mxCell>
        <mxCell id="ACvKjDb-c_gntps21gae-28" value="NODE 2" style="rounded=1;whiteSpace=wrap;html=1;fillColor=#e3c800;fontColor=#000000;strokeColor=#B09500;" vertex="1" parent="1">
          <mxGeometry x="1100" y="555" width="90" height="90" as="geometry" />
        </mxCell>
        <mxCell id="ACvKjDb-c_gntps21gae-29" value="NODE 1" style="rounded=1;whiteSpace=wrap;html=1;fillColor=#e3c800;fontColor=#000000;strokeColor=#B09500;" vertex="1" parent="1">
          <mxGeometry x="1100" y="375" width="90" height="90" as="geometry" />
        </mxCell>
        <mxCell id="ACvKjDb-c_gntps21gae-30" value="NODE 4" style="rounded=1;whiteSpace=wrap;html=1;fillColor=#e3c800;fontColor=#000000;strokeColor=#B09500;" vertex="1" parent="1">
          <mxGeometry x="755" y="555" width="90" height="90" as="geometry" />
        </mxCell>
        <mxCell id="ACvKjDb-c_gntps21gae-38" style="edgeStyle=orthogonalEdgeStyle;rounded=0;orthogonalLoop=1;jettySize=auto;html=1;exitX=0;exitY=0.25;exitDx=0;exitDy=0;entryX=0.611;entryY=1.011;entryDx=0;entryDy=0;entryPerimeter=0;" edge="1" parent="1" source="ACvKjDb-c_gntps21gae-28" target="ACvKjDb-c_gntps21gae-26">
          <mxGeometry relative="1" as="geometry" />
        </mxCell>
        <mxCell id="ACvKjDb-c_gntps21gae-40" style="edgeStyle=orthogonalEdgeStyle;rounded=0;orthogonalLoop=1;jettySize=auto;html=1;exitX=0;exitY=0.25;exitDx=0;exitDy=0;entryX=0.867;entryY=1;entryDx=0;entryDy=0;entryPerimeter=0;" edge="1" parent="1" source="ACvKjDb-c_gntps21gae-29" target="ACvKjDb-c_gntps21gae-26">
          <mxGeometry relative="1" as="geometry" />
        </mxCell>
      </root>
    </mxGraphModel>
  </diagram>
</mxfile>
